<?xml version="1.0" encoding="UTF-8" standalone="no"?>
<!-- Created with Inkscape (http://www.inkscape.org/) -->

<svg
   width="297mm"
   height="210mm"
   viewBox="0 0 297 210"
   version="1.1"
   id="svg1"
   xml:space="preserve"
   inkscape:version="1.4.2 (2aeb623e1d, 2025-05-12)"
   sodipodi:docname="logo.svg"
   xmlns:inkscape="http://www.inkscape.org/namespaces/inkscape"
   xmlns:sodipodi="http://sodipodi.sourceforge.net/DTD/sodipodi-0.dtd"
   xmlns="http://www.w3.org/2000/svg"
   xmlns:svg="http://www.w3.org/2000/svg"><sodipodi:namedview
     id="namedview1"
     pagecolor="#ffffff"
     bordercolor="#000000"
     borderopacity="0.25"
     inkscape:showpageshadow="2"
     inkscape:pageopacity="0.0"
     inkscape:pagecheckerboard="0"
     inkscape:deskcolor="#d1d1d1"
     inkscape:document-units="mm"
     inkscape:zoom="0.7180275"
     inkscape:cx="383.69004"
     inkscape:cy="378.81558"
     inkscape:window-width="2560"
     inkscape:window-height="1011"
     inkscape:window-x="0"
     inkscape:window-y="0"
     inkscape:window-maximized="1"
     inkscape:current-layer="layer3" /><defs
     id="defs1"><rect
       x="153.19748"
       y="295.25332"
       width="141.43234"
       height="67.145803"
       id="rect1" /></defs><g
     inkscape:label="Logo"
     inkscape:groupmode="layer"
     id="layer1"
     style="display:inline"><path
       style="fill:#7a0c0c;fill-opacity:1;stroke-width:0.44016"
       d="m 141.75693,138.86001 c -1.38709,-0.0902 -6.30394,-0.52432 -7.74453,-0.68374 -3.53452,-0.39111 -8.32136,-1.41034 -11.53335,-2.45572 -1.49063,-0.48515 -2.0217,-0.83479 -2.73072,-1.79793 -0.85206,-1.15745 -0.81525,-1.92033 0.13873,-2.8743 1.05279,-1.0528 4.85989,-2.54732 8.22435,-3.22854 1.58849,-0.32163 4.11256,-0.64227 5.05595,-0.64227 h 0.61212 v -3.02795 -3.02792 h -0.68383 c -1.36678,0 -4.47695,-0.99149 -5.79861,-1.84855 -2.00823,-1.30227 -3.53158,-3.42115 -4.13497,-5.75154 -0.23114,-0.89268 -0.25203,-1.32344 -0.29933,-6.17145 -0.0703,-7.20181 0.0813,-8.575911 1.12403,-10.189202 0.76283,-1.180254 2.25384,-2.585505 3.32922,-3.137722 1.75327,-0.900327 3.56286,-1.317514 5.71494,-1.317514 h 1.09792 v -4.076076 -4.076068 h -0.63206 c -0.54413,0 -0.66567,-0.04278 -0.87345,-0.306855 -0.22356,-0.284202 -0.24137,-0.459101 -0.24137,-2.370018 0,-2.180509 0.0698,-2.591996 0.54943,-3.237817 0.56597,-0.762119 1.54813,-1.1773 3.87601,-1.638499 3.50898,-0.6952 6.48539,-0.877678 13.00364,-0.79733 4.68725,0.05779 6.7249,0.160958 10.90745,0.552212 2.40148,0.224647 3.17358,0.515487 4.12131,1.552454 0.75689,0.828145 0.84957,1.220041 0.84902,3.58975 -3.8e-4,1.687793 -0.0261,1.941241 -0.2312,2.277611 -0.21933,0.359748 -0.2656,0.378492 -0.93382,0.378492 h -0.70307 l 0.0605,5.153318 c 0.20948,17.826834 0.31146,27.805894 0.3305,32.342844 l 0.0218,5.17877 1.22282,0.13552 c 0.67255,0.0746 1.85171,0.26932 2.62033,0.43286 0.76863,0.16355 1.68547,0.35532 2.03742,0.42619 2.09469,0.42177 5.00285,1.49604 6.19523,2.28852 1.3586,0.90295 1.83402,1.82251 1.39114,2.69065 -1.40075,2.74571 -9.63365,4.85652 -21.91021,5.61749 -1.71011,0.10605 -12.54521,0.13714 -14.03334,0.0404 z m 11.65811,-4.46349 c 2.79745,-0.21964 5.7651,-0.74789 7.1779,-1.27768 0.84519,-0.31693 1.70288,-0.90246 2.03253,-1.38752 0.49739,-0.73198 0.51221,-1.11634 0.3842,-9.96916 -0.11308,-7.81559 -0.33503,-30.478174 -0.34424,-35.141485 l -0.004,-2.067157 h -5.65115 -5.65115 l -0.10462,0.275229 c -0.1045,0.274992 -0.41452,0.418938 -0.9086,0.421938 l -0.26204,0.002 v 13.276314 13.276311 h -0.9899 -0.98991 V 98.529339 85.253045 l -0.32026,-0.002 c -0.5513,-0.002 -0.85841,-0.136774 -0.96684,-0.421941 l -0.10462,-0.27523 h -5.63549 -5.6355 l -0.0732,4.687472 c -0.0402,2.57812 -0.12806,9.9019 -0.19523,16.275124 -0.0671,6.37322 -0.16967,14.54865 -0.22774,18.16762 -0.0722,4.49695 -0.0673,6.75651 0.0153,7.13772 0.43236,1.9945 3.56582,3.30384 8.54337,3.56993 2.5039,0.13385 8.234,0.13682 9.91124,0.006 z m -8.57196,-1.69946 c -0.22417,-0.0241 -0.98407,-0.10164 -1.68865,-0.17235 -3.05743,-0.30699 -5.28612,-0.88057 -6.08781,-1.5668 -0.86561,-0.74093 -0.84151,-0.44344 -0.84151,-10.38148 v -8.77152 l 0.32026,8.8e-4 c 0.17615,8.7e-4 0.51512,0.0335 0.75326,0.0728 l 0.433,0.0715 0.0329,8.16663 c 0.0327,8.11374 0.0346,8.17017 0.28697,8.71669 0.43632,0.94451 1.31571,1.25416 2.36712,0.83348 0.33264,-0.1331 0.55221,-0.33028 0.74571,-0.66964 l 0.27425,-0.48099 0.069,-8.13955 c 0.0379,-4.47676 0.0834,-8.15392 0.10092,-8.1715 0.0176,-0.0175 2.10207,0.0145 4.63214,0.0714 4.92583,0.11057 9.61621,0.004 12.92695,-0.29574 1.05688,-0.0954 2.04043,-0.17422 2.18568,-0.17502 l 0.26408,-8.7e-4 -0.0312,9.22938 -0.0312,9.22938 -0.27837,0.37098 c -0.57662,0.76843 -2.3498,1.42282 -5.02051,1.85279 -0.98222,0.15814 -2.18527,0.20243 -6.1141,0.2251 -2.69022,0.0155 -5.07471,0.008 -5.2989,-0.0155 z m -10.93266,-18.22293 c 0.04,-0.92362 0.0792,-5.12504 0.0873,-9.33652 l 0.0147,-7.657145 h -0.64543 c -0.84015,0 -2.30679,0.30601 -2.8882,0.602617 -0.74814,0.381677 -1.53095,1.198734 -1.86797,1.949708 -0.56235,1.25307 -0.7006,2.64445 -0.70686,7.11376 -0.007,4.18582 0.0692,5.0578 0.528,6.13385 0.4187,0.982 1.6221,1.96832 2.96013,2.42616 0.61833,0.21156 2.13393,0.52019 2.32918,0.47427 0.0667,-0.0157 0.14752,-0.74451 0.18918,-1.7067 z m 19.15324,-31.586636 c 0.27538,-0.320284 0.28095,-0.370115 0.28095,-2.512685 v -2.185932 l -0.30152,-0.282331 -0.30149,-0.282332 -4.50244,0.03253 c -5.01568,0.03634 -6.78984,0.136793 -9.85955,0.558622 -2.732,0.375429 -3.98247,0.744674 -4.45456,1.315379 -0.10199,0.12328 -0.14557,0.692221 -0.14557,1.899656 v 1.723672 l 6.66728,0.0361 c 3.66701,0.0199 7.94273,0.03336 9.50162,0.03003 l 2.83433,-0.0071 z m -4.43669,-8.270852 c 0.91666,-1.695337 1.20492,-3.523689 0.8158,-5.174103 -0.28636,-1.214453 -0.99173,-2.472541 -2.7912,-4.978207 -1.2283,-1.710339 -1.72266,-2.964531 -1.72266,-4.37035 0,-1.137763 0.3548,-1.973283 1.17879,-2.775868 0.85532,-0.833125 1.66811,-1.104542 3.13015,-1.045285 1.02773,0.04159 1.2011,0.08281 1.80324,0.427787 1.61211,0.923685 2.35689,2.609775 1.9572,4.430822 -0.30323,1.381523 -1.07131,2.287644 -2.58823,3.053386 -0.67031,0.338371 -0.67568,0.345175 -0.67568,0.857207 0,0.383234 0.12533,0.75012 0.48674,1.424944 1.39648,2.607451 1.31838,2.367218 1.31838,4.055298 0,1.473524 -0.0107,1.5375 -0.37674,2.281686 -0.47629,0.967952 -1.12428,1.705965 -2.02738,2.309035 -1.04359,0.696893 -1.11557,0.626602 -0.50841,-0.496352 z m -1.68728,-13.005738 c 0.19404,-0.103905 1.40972,-2.011723 1.90703,-2.992866 0.28254,-0.55743 0.24854,-1.066125 -0.0796,-1.190871 -1.04582,-0.397629 -2.54529,0.937185 -2.72119,2.422363 -0.0809,0.683166 0.13427,1.597425 0.4145,1.761183 0.2371,0.138568 0.22069,0.138568 0.47925,1.91e-4 z m -0.002,11.332696 c -0.002,-1.059131 -0.27129,-2.270379 -0.65003,-2.931572 -0.17011,-0.296976 -1.08166,-1.299841 -2.02564,-2.228613 -1.98141,-1.94944 -2.35304,-2.538876 -2.42709,-3.849561 -0.0717,-1.269038 0.50042,-2.90395 1.22734,-3.507232 0.16798,-0.139414 0.17575,-0.09831 0.0809,0.427763 -0.0578,0.320105 -0.10116,0.983776 -0.0965,1.474812 0.0129,1.381833 0.42292,2.105917 2.24377,3.962295 0.79985,0.815442 1.60336,1.733645 1.78563,2.040452 0.87079,1.465839 1.04271,3.418627 0.40983,4.654767 -0.45082,0.880538 -0.54585,0.873066 -0.54819,-0.04313 z"
       id="path1"
       inkscape:label="CoffeeLogo"
       sodipodi:insensitive="true" /></g><g
     inkscape:groupmode="layer"
     id="layer3"
     inkscape:label="MainText"><text
       xml:space="preserve"
       style="font-style:normal;font-variant:normal;font-weight:normal;font-stretch:normal;font-size:126.467px;font-family:Dhurjati;-inkscape-font-specification:'Dhurjati, Normal';font-variant-ligatures:normal;font-variant-caps:normal;font-variant-numeric:normal;font-variant-east-asian:normal;text-align:start;letter-spacing:0px;word-spacing:0px;writing-mode:lr-tb;direction:ltr;text-anchor:start;display:inline;fill:#7a0c0c;fill-opacity:1;stroke:none;stroke-width:0.343233;stroke-linecap:round;stroke-linejoin:round"
       x="4.1641364"
       y="137.19203"
       id="text2"
       inkscape:label="Grind Text"><tspan
         sodipodi:role="line"
         id="tspan2"
         x="4.1641364"
         y="137.19203"
         style="stroke-width:0.343233">GR  ND</tspan></text></g></svg>
